# xmcd CD database file generated by Grip 3.2.0
# 
# Track frame offsets:
#       183
#       13443
#       44668
#       87770
#       108850
#       170728
# 
# Disc length: 2418 seconds
# 
# Revision: 2
# Processed by: cddbd v1.5.2PL0 Copyright (c) Steve Scherf et al.
# Submitted via: Grip 3.2.0
# 
DISCID=4b097006
DTITLE=Ange - Caricatures
DYEAR=1972
DGENRE=Progressive Rock
TTITLE0=Biafra 80 (Introduction)
TTITLE1=Tels Quels
TTITLE2=Dignité
TTITLE3=Le Soir du Diable
TTITLE4=Caricatures
TTITLE5=Biafra 80 (Finale)
EXTD=
EXTT0=
EXTT1=
EXTT2=
EXTT3=
EXTT4=
EXTT5=
PLAYORDER=
